<?xml version="1.0" encoding="UTF-8"?>
<svg xmlns="http://www.w3.org/2000/svg" version="1.1" viewBox="0 0 158 48">
  <defs>
    <style>
      .cls-1 {
        fill: #fff;
      }

      .cls-2 {
        fill: #0f0d0c;
      }

      .cls-3 {
        fill: #ababab;
      }

      .cls-4 {
        display: none;
      }

      .cls-5 {
        fill: #636464;
      }
    </style>
  </defs>
  <!-- Generator: Adobe Illustrator 28.7.1, SVG Export Plug-In . SVG Version: 1.2.0 Build 142)  -->
  <g>
    <g id="Layer_1">
      <g class="cls-4">
        <g>
          <path class="cls-2" d="M17.27,21.52l-10.09,3.33,8.73,3.33-.8,4.07L1.66,26.89l.91-4.54,15.6-5.37-.91,4.54Z"/>
          <path class="cls-5" d="M32.43,24.59l5.6,10.35h-6.31l-3.13-6.19-5.4,6.19h-6.99l9.82-10.68-5.28-9.97h6.22l3.01,5.93,5.25-5.93h6.61l-9.41,10.29Z"/>
          <path class="cls-5" d="M38.86,33.14l2.3-4.37c2.09,1.33,4.51,2.04,6.87,2.04s3.54-.71,3.54-1.83c0-2.77-10.03-1.24-10.03-7.73,0-4.45,3.8-7.37,9.91-7.37,2.92,0,5.57.62,7.43,1.77l-2.12,4.34c-1.62-1.03-3.63-1.56-5.66-1.56-2.42,0-3.72.88-3.72,2.01-.03,2.83,10.03,1.21,10.03,7.58,0,4.42-3.89,7.34-9.94,7.34-3.54,0-6.75-.94-8.61-2.21Z"/>
          <path class="cls-5" d="M78.68,18.96l-3.19,15.99h-5.31l.32-1.5c-1.24,1.15-2.77,1.77-4.63,1.77-3.45,0-6.75-2.63-6.75-7.29,0-5.31,3.89-9.23,8.67-9.23,2.15,0,3.89.65,4.9,2.18l.38-1.92h5.6ZM71.63,26.24c0-1.86-1.12-3.07-3.04-3.07-2.21,0-3.8,1.8-3.8,4.48,0,1.86,1.12,3.04,3.04,3.04,2.24,0,3.8-1.8,3.8-4.45Z"/>
          <path class="cls-5" d="M99.18,18.96l-3.19,15.99h-5.31l.32-1.5c-1.24,1.15-2.77,1.77-4.63,1.77-3.45,0-6.75-2.63-6.75-7.29,0-5.31,3.89-9.23,8.67-9.23,2.15,0,3.89.65,4.9,2.18l.38-1.92h5.6ZM92.13,26.24c0-1.86-1.12-3.07-3.04-3.07-2.21,0-3.8,1.8-3.8,4.48,0,1.86,1.12,3.04,3.04,3.04,2.24,0,3.8-1.8,3.8-4.45Z"/>
          <path class="cls-5" d="M98.82,33.14l2.3-4.37c2.09,1.33,4.51,2.04,6.87,2.04s3.54-.71,3.54-1.83c0-2.77-10.03-1.24-10.03-7.73,0-4.45,3.8-7.37,9.91-7.37,2.92,0,5.57.62,7.43,1.77l-2.12,4.34c-1.62-1.03-3.63-1.56-5.66-1.56-2.42,0-3.72.88-3.72,2.01-.03,2.83,10.03,1.21,10.03,7.58,0,4.42-3.89,7.34-9.94,7.34-3.54,0-6.75-.94-8.61-2.21Z"/>
          <path class="cls-2" d="M138.76,10.11h5.16l-15.13,27.78h-5.16l15.13-27.78Z"/>
          <path class="cls-2" d="M156.34,22.35l-.91,4.54-15.6,5.37.91-4.54,10.09-3.33-8.73-3.33.83-4.07,13.42,5.37Z"/>
        </g>
        <g>
          <path class="cls-2" d="M33.2,24.59l5.6,10.35h-6.31l-3.13-6.19-5.4,6.19h-6.99l9.82-10.68-5.28-9.97h6.22l3.01,5.93,5.25-5.93h6.61l-9.41,10.29Z"/>
          <path class="cls-2" d="M39.64,33.14l2.3-4.37c2.09,1.33,4.51,2.04,6.87,2.04s3.54-.71,3.54-1.83c0-2.77-10.03-1.24-10.03-7.73,0-4.45,3.8-7.37,9.91-7.37,2.92,0,5.57.62,7.43,1.77l-2.12,4.34c-1.62-1.03-3.63-1.56-5.66-1.56-2.42,0-3.72.88-3.72,2.01-.03,2.83,10.03,1.21,10.03,7.58,0,4.42-3.89,7.34-9.94,7.34-3.54,0-6.75-.94-8.61-2.21Z"/>
          <path class="cls-2" d="M79.45,18.96l-3.19,15.99h-5.31l.32-1.5c-1.24,1.15-2.77,1.77-4.63,1.77-3.45,0-6.75-2.63-6.75-7.29,0-5.31,3.89-9.23,8.67-9.23,2.15,0,3.89.65,4.9,2.18l.38-1.92h5.6ZM72.4,26.24c0-1.86-1.12-3.07-3.04-3.07-2.21,0-3.8,1.8-3.8,4.48,0,1.86,1.12,3.04,3.04,3.04,2.24,0,3.8-1.8,3.8-4.45Z"/>
          <path class="cls-2" d="M99.95,18.96l-3.19,15.99h-5.31l.32-1.5c-1.24,1.15-2.77,1.77-4.63,1.77-3.45,0-6.75-2.63-6.75-7.29,0-5.31,3.89-9.23,8.67-9.23,2.15,0,3.89.65,4.9,2.18l.38-1.92h5.6ZM92.9,26.24c0-1.86-1.12-3.07-3.04-3.07-2.21,0-3.8,1.8-3.8,4.48,0,1.86,1.12,3.04,3.04,3.04,2.24,0,3.8-1.8,3.8-4.45Z"/>
          <path class="cls-2" d="M99.6,33.14l2.3-4.37c2.09,1.33,4.51,2.04,6.87,2.04s3.54-.71,3.54-1.83c0-2.77-10.03-1.24-10.03-7.73,0-4.45,3.8-7.37,9.91-7.37,2.92,0,5.57.62,7.43,1.77l-2.12,4.34c-1.62-1.03-3.63-1.56-5.66-1.56-2.42,0-3.72.88-3.72,2.01-.03,2.83,10.03,1.21,10.03,7.58,0,4.42-3.89,7.34-9.94,7.34-3.54,0-6.75-.94-8.61-2.21Z"/>
        </g>
      </g>
      <g>
        <g>
          <path class="cls-1" d="M17.27,21.52l-10.09,3.33,8.73,3.33-.8,4.07L1.66,26.89l.91-4.54,15.6-5.37-.91,4.54Z"/>
          <g>
            <path class="cls-3" d="M32.43,24.59l5.6,10.35h-6.31l-3.13-6.19-5.4,6.19h-6.99l9.82-10.68-5.28-9.97h6.22l3.01,5.93,5.25-5.93h6.61l-9.41,10.29Z"/>
            <path class="cls-3" d="M38.86,33.14l2.3-4.37c2.09,1.33,4.51,2.04,6.87,2.04s3.54-.71,3.54-1.83c0-2.77-10.03-1.24-10.03-7.73,0-4.45,3.8-7.37,9.91-7.37,2.92,0,5.57.62,7.43,1.77l-2.12,4.34c-1.62-1.03-3.63-1.56-5.66-1.56-2.42,0-3.72.88-3.72,2.01-.03,2.83,10.03,1.21,10.03,7.58,0,4.42-3.89,7.34-9.94,7.34-3.54,0-6.75-.94-8.61-2.21Z"/>
            <path class="cls-3" d="M78.68,18.96l-3.19,15.99h-5.31l.32-1.5c-1.24,1.15-2.77,1.77-4.63,1.77-3.45,0-6.75-2.63-6.75-7.29,0-5.31,3.89-9.23,8.67-9.23,2.15,0,3.89.65,4.9,2.18l.38-1.92h5.6ZM71.63,26.24c0-1.86-1.12-3.07-3.04-3.07-2.21,0-3.8,1.8-3.8,4.48,0,1.86,1.12,3.04,3.04,3.04,2.24,0,3.8-1.8,3.8-4.45Z"/>
            <path class="cls-3" d="M99.18,18.96l-3.19,15.99h-5.31l.32-1.5c-1.24,1.15-2.77,1.77-4.63,1.77-3.45,0-6.75-2.63-6.75-7.29,0-5.31,3.89-9.23,8.67-9.23,2.15,0,3.89.65,4.9,2.18l.38-1.92h5.6ZM92.13,26.24c0-1.86-1.12-3.07-3.04-3.07-2.21,0-3.8,1.8-3.8,4.48,0,1.86,1.12,3.04,3.04,3.04,2.24,0,3.8-1.8,3.8-4.45Z"/>
            <path class="cls-3" d="M98.82,33.14l2.3-4.37c2.09,1.33,4.51,2.04,6.87,2.04s3.54-.71,3.54-1.83c0-2.77-10.03-1.24-10.03-7.73,0-4.45,3.8-7.37,9.91-7.37,2.92,0,5.57.62,7.43,1.77l-2.12,4.34c-1.62-1.03-3.63-1.56-5.66-1.56-2.42,0-3.72.88-3.72,2.01-.03,2.83,10.03,1.21,10.03,7.58,0,4.42-3.89,7.34-9.94,7.34-3.54,0-6.75-.94-8.61-2.21Z"/>
          </g>
          <path class="cls-1" d="M138.76,10.11h5.16l-15.13,27.78h-5.16l15.13-27.78Z"/>
          <path class="cls-1" d="M156.34,22.35l-.91,4.54-15.6,5.37.91-4.54,10.09-3.33-8.73-3.33.83-4.07,13.42,5.37Z"/>
        </g>
        <g>
          <path class="cls-1" d="M33.2,24.59l5.6,10.35h-6.31l-3.13-6.19-5.4,6.19h-6.99l9.82-10.68-5.28-9.97h6.22l3.01,5.93,5.25-5.93h6.61l-9.41,10.29Z"/>
          <path class="cls-1" d="M39.64,33.14l2.3-4.37c2.09,1.33,4.51,2.04,6.87,2.04s3.54-.71,3.54-1.83c0-2.77-10.03-1.24-10.03-7.73,0-4.45,3.8-7.37,9.91-7.37,2.92,0,5.57.62,7.43,1.77l-2.12,4.34c-1.62-1.03-3.63-1.56-5.66-1.56-2.42,0-3.72.88-3.72,2.01-.03,2.83,10.03,1.21,10.03,7.58,0,4.42-3.89,7.34-9.94,7.34-3.54,0-6.75-.94-8.61-2.21Z"/>
          <path class="cls-1" d="M79.45,18.96l-3.19,15.99h-5.31l.32-1.5c-1.24,1.15-2.77,1.77-4.63,1.77-3.45,0-6.75-2.63-6.75-7.29,0-5.31,3.89-9.23,8.67-9.23,2.15,0,3.89.65,4.9,2.18l.38-1.92h5.6ZM72.4,26.24c0-1.86-1.12-3.07-3.04-3.07-2.21,0-3.8,1.8-3.8,4.48,0,1.86,1.12,3.04,3.04,3.04,2.24,0,3.8-1.8,3.8-4.45Z"/>
          <path class="cls-1" d="M99.95,18.96l-3.19,15.99h-5.31l.32-1.5c-1.24,1.15-2.77,1.77-4.63,1.77-3.45,0-6.75-2.63-6.75-7.29,0-5.31,3.89-9.23,8.67-9.23,2.15,0,3.89.65,4.9,2.18l.38-1.92h5.6ZM92.9,26.24c0-1.86-1.12-3.07-3.04-3.07-2.21,0-3.8,1.8-3.8,4.48,0,1.86,1.12,3.04,3.04,3.04,2.24,0,3.8-1.8,3.8-4.45Z"/>
          <path class="cls-1" d="M99.6,33.14l2.3-4.37c2.09,1.33,4.51,2.04,6.87,2.04s3.54-.71,3.54-1.83c0-2.77-10.03-1.24-10.03-7.73,0-4.45,3.8-7.37,9.91-7.37,2.92,0,5.57.62,7.43,1.77l-2.12,4.34c-1.62-1.03-3.63-1.56-5.66-1.56-2.42,0-3.72.88-3.72,2.01-.03,2.83,10.03,1.21,10.03,7.58,0,4.42-3.89,7.34-9.94,7.34-3.54,0-6.75-.94-8.61-2.21Z"/>
        </g>
      </g>
    </g>
  </g>
</svg>